<svg width="479" height="124" viewBox="0 0 479 124" fill="none" xmlns="http://www.w3.org/2000/svg">
<path fill-rule="evenodd" clip-rule="evenodd" d="M79.3009 22.0996C79.1009 28.0996 76.0009 33.4996 70.7009 36.4996L58.3009 43.6996L51.1009 56.0996L47.5009 49.8996L7.90093 72.7996C4.10093 74.9996 1.50093 78.7996 1.10093 83.0996C0.500929 88.6996 3.10093 93.6996 7.80093 96.3996C12.8009 99.2996 17.9009 102.2 22.9009 105.1C23.1009 99.0996 26.2009 93.6996 31.5009 90.6996L43.0009 84.0996L39.4009 77.8996H53.8009L94.4009 54.4996C98.2009 52.2996 100.801 48.4996 101.201 44.1996C101.801 38.5996 99.2009 33.5996 94.5009 30.8996L79.4009 22.1996L79.3009 22.0996Z" fill="white"/>
<path fill-rule="evenodd" clip-rule="evenodd" d="M65.2001 81.6996L58.3001 85.6996L57.0001 87.9996L51.2001 98.0996L47.6001 91.8996L36.2001 98.4996C34.0001 99.6996 32.5001 101.9 32.2001 104.4C31.7001 107.9 33.3001 111 36.2001 112.7L43.1001 116.7C48.2001 119.6 54.4001 119.6 59.5001 116.7L65.4001 113.3L94.6001 96.3996C98.4001 94.1996 101 90.3996 101.4 86.0996C101.9 80.4996 99.4001 75.4996 94.7001 72.7996L79.6001 64.0996C79.4001 70.0996 76.3001 75.4996 71.0001 78.4996L65.4001 81.6996H65.2001Z" fill="white"/>
<path d="M78.5016 21.5998L66.3016 14.5998C64.0016 13.2998 61.7016 11.8998 59.4016 10.5998C54.3016 7.6998 48.1016 7.6998 43.0016 10.5998C31.8016 17.0998 20.5016 23.5998 9.30156 30.0998C4.20156 32.9998 1.10156 38.3998 1.10156 44.2998C1.10156 45.6998 1.10156 47.0998 1.10156 48.4998V61.3998V62.9998C1.10156 62.9998 1.30156 66.7998 4.80156 64.5998C7.10156 63.1998 11.6016 60.4998 14.4016 58.6998L43.1016 42.0998L39.5016 35.8998H53.9016L66.3016 28.6998L78.5016 21.5998Z" fill="white"/>
<path d="M162.2 101.5C147.9 101.5 135.9 89.7996 135.9 72.9996V25.5996H140.7C146.1 25.5996 149.8 28.6996 149.8 35.1996V51.4996C152.6 47.4996 157.4 42.9996 164.9 42.9996C179.1 42.9996 190 54.5996 190 71.0996C190 87.5996 179.2 101.5 162.2 101.5ZM162.2 55.3996C155.2 55.3996 149.9 62.2996 149.9 70.9996C149.9 83.7996 155.4 89.0996 163.7 89.0996C172 89.0996 175.6 82.4996 175.6 73.4996C175.6 59.8996 170.7 55.3996 162.2 55.3996Z" fill="white"/>
<path d="M227.7 57.8992C225.6 57.0992 223.2 56.1992 219.6 56.1992C213.4 56.1992 210 59.5992 210 68.0992V100.199H206.2C200 100.199 196 97.0992 196 91.2992V65.5992C196 54.3992 201.9 43.6992 216.6 43.6992C231.3 43.6992 228.2 48.5992 228.2 52.7992V57.7992H227.7V57.8992Z" fill="white"/>
<path d="M246.201 41.0995C239.701 43.2995 233.701 37.0995 235.901 30.6995C236.701 28.3995 238.501 26.4995 240.901 25.6995C247.301 23.5995 253.501 29.4995 251.301 35.9995C250.501 38.3995 248.601 40.2995 246.301 40.9995L246.201 41.0995ZM253.401 100.699C242.601 100.699 236.701 94.5995 236.701 83.2995V45.4995H240.601C246.801 45.4995 250.501 48.7995 250.501 55.8995V81.9995C250.501 87.5995 252.901 89.3995 259.001 89.3995H261.601V92.3995C261.601 98.3995 259.201 100.799 253.301 100.799L253.401 100.699Z" fill="white"/>
<path d="M286 101.5C275.7 101.5 268.1 96.1996 268.1 90.4996V84.1996H268.6C271.6 86.9996 278.8 89.4996 285.4 89.4996C292 89.4996 295.6 87.4996 295.6 83.3996C295.6 79.2996 293.6 78.5996 284 77.2996C272.2 75.5996 266.5 70.9996 266.5 62.4996C266.5 53.9996 275.9 43.0996 290.2 43.0996C304.5 43.0996 308 49.5996 308 54.9996V60.2996H307.5C304.6 57.3996 298.2 55.0996 291.5 55.0996C284.8 55.0996 280.3 57.6996 280.3 61.2996C280.3 64.8996 282 65.1996 291.5 66.7996C303.1 68.6996 309.3 73.6996 309.3 82.5996C309.3 91.4996 301 101.5 286 101.5Z" fill="white"/>
<path d="M330.101 34.8996V68.2996C335.501 61.2996 340.801 54.0996 347.201 47.9996C350.501 44.8996 353.801 44.3996 358.301 44.3996H366.301V44.8996C362.401 48.1996 349.401 62.8996 343.601 70.2996C348.101 75.7996 352.401 81.4996 357.401 86.5996C362.501 91.6996 364.801 92.6996 368.201 93.8996C366.701 98.3996 364.501 100.7 358.801 100.7C353.101 100.7 352.101 99.1996 349.701 96.8996C342.601 89.4996 336.301 81.2996 330.201 73.0996V100.3H325.701C319.301 100.5 316.201 97.0996 316.201 90.5996V25.5996H320.701C327.401 25.5996 330.201 29.3996 330.201 34.7996L330.101 34.8996Z" fill="white"/>
<path d="M395.2 42.999C412 42.999 421.6 56.499 421.6 71.299C421.6 86.099 412 101.399 393.9 101.399C375.8 101.399 367.5 87.999 367.5 73.199C367.5 58.399 377.1 42.999 395.2 42.999ZM393.9 55.499C385.9 55.499 381.9 62.099 381.9 71.299C381.9 80.499 385.9 88.999 395.2 88.999C404.5 88.999 407.2 82.399 407.2 73.299C407.2 64.199 403.1 55.499 393.9 55.499Z" fill="white"/>
<path d="M473.6 100.199C467.4 100.199 463.4 96.299 463.4 91.099V68.899C463.4 59.499 459.3 55.299 452.1 55.299C444.9 55.299 441.9 59.899 441.9 67.799V100.099H437.8C431.9 100.099 428.1 96.199 428.1 90.999V66.899C428.1 55.099 435.9 42.999 453.3 42.999C470.7 42.999 477.3 51.799 477.3 67.699V100.199H473.6Z" fill="white"/>
<path d="M478.9 32.4998C478.9 36.5998 475.7 39.7998 471.5 39.7998C467.3 39.7998 464.1 36.5998 464.1 32.4998C464.1 28.3998 467.4 25.2998 471.5 25.2998C475.6 25.2998 478.9 28.4998 478.9 32.4998ZM465.9 32.4998C465.9 35.6998 468.3 38.1998 471.5 38.1998C474.7 38.1998 477 35.6998 477 32.4998C477 29.2998 474.7 26.6998 471.5 26.6998C468.3 26.6998 465.9 29.2998 465.9 32.3998V32.4998ZM470.4 36.2998H468.7V29.0998C469.4 28.9998 470.3 28.8998 471.5 28.8998C472.7 28.8998 473.5 29.0998 474 29.3998C474.4 29.6998 474.7 30.2998 474.7 30.9998C474.7 31.6998 474.1 32.3998 473.2 32.6998C473.9 33.0998 474.3 33.5998 474.5 34.4998C474.7 35.5998 474.9 35.9998 475 36.2998H473.2C473 35.9998 472.8 35.3998 472.6 34.4998C472.5 33.6998 472 33.3998 471.1 33.3998H470.3V36.2998H470.4ZM470.4 32.1998H471.2C472.1 32.1998 472.9 31.8998 472.9 31.0998C472.9 30.2998 472.4 29.9998 471.4 29.9998C470.4 29.9998 470.7 29.9998 470.5 29.9998V32.0998L470.4 32.1998Z" fill="white"/>
</svg>
