<?xml version="1.0" encoding="UTF-8"?>
<svg id="Layer_1" xmlns="http://www.w3.org/2000/svg" version="1.1" viewBox="0 0 160.8 37.3">
  <!-- Generator: Adobe Illustrator 29.3.1, SVG Export Plug-In . SVG Version: 2.1.0 Build 151)  -->
  <defs>
    <style>
      .st0, .st1 {
        fill: #141414;
      }

      .st1 {
        fill-rule: evenodd;
      }
    </style>
  </defs>
  <g>
    <path class="st1" d="M26.4,4.6c0,2-1.1,3.8-2.9,4.9l-4.2,2.4-2.4,4.2-1.2-2.1-13.4,7.7c-1.3.7-2.2,2-2.3,3.5-.2,1.9.7,3.6,2.3,4.5,1.7,1,3.4,2,5.1,2.9,0-2,1.1-3.8,2.9-4.9l3.9-2.2-1.2-2.1h4.9l13.7-7.9c1.3-.7,2.2-2,2.3-3.5.2-1.9-.7-3.6-2.3-4.5l-5.1-2.9h0Z"/>
    <path class="st1" d="M21.7,24.8l-2.4,1.4-.5.8-2,3.4-1.2-2.1-3.9,2.2c-.7.4-1.2,1.1-1.4,2-.2,1.2.4,2.2,1.4,2.8l2.3,1.3c1.7,1,3.8,1,5.5,0l2-1.2,9.9-5.7c1.3-.7,2.2-2,2.3-3.5.2-1.9-.7-3.6-2.3-4.5l-5.1-2.9c0,2-1.1,3.8-2.9,4.9l-1.9,1.1h0Z"/>
    <path class="st0" d="M26.2,4.5l-4.1-2.4h0c-.8-.5-1.6-.9-2.3-1.4-1.7-1-3.8-1-5.5,0-3.8,2.2-7.6,4.4-11.4,6.6C1.1,8.3,0,10.1,0,12.1v1.4H0v4.9s0,1.3,1.3.5c.8-.5,2.3-1.4,3.2-2l9.7-5.6-1.2-2.1h4.8l4.2-2.4h0l4.1-2.4h0Z"/>
  </g>
  <g>
    <path class="st0" d="M54.4,31.4c-4.8,0-8.9-4-8.9-9.6V5.8h1.6c1.8,0,3.1,1.1,3.1,3.2v5.5c.9-1.4,2.5-2.9,5.1-2.9,4.8,0,8.5,3.9,8.5,9.5s-3.6,10.2-9.4,10.2h0ZM54.4,15.9c-2.4,0-4.2,2.3-4.2,5.3,0,4.3,1.8,6.1,4.7,6.1s4-2.2,4-5.3c0-4.6-1.6-6.1-4.5-6.1Z"/>
    <path class="st0" d="M76.5,16.7c-.7-.3-1.5-.6-2.7-.6-2.1,0-3.2,1.1-3.2,4v10.8h-1.3c-2.1,0-3.4-1-3.4-3v-8.7c0-3.8,2-7.4,7-7.4s3.9,1.6,3.9,3.1v1.7h-.2Z"/>
    <path class="st0" d="M82.8,11.1c-2.2.7-4.2-1.3-3.5-3.5.3-.8.9-1.4,1.7-1.7,2.2-.7,4.2,1.3,3.5,3.5-.3.8-.9,1.4-1.7,1.7ZM85.2,31.2c-3.6,0-5.6-2.1-5.6-5.9v-12.8h1.3c2.1,0,3.4,1.1,3.4,3.5v8.8c0,1.9.8,2.5,2.9,2.5h.9v1c0,2-.8,2.8-2.8,2.8h0Z"/>
    <path class="st0" d="M96.2,31.4c-3.5,0-6.1-1.8-6.1-3.7v-2.1h.2c1,.9,3.4,1.8,5.7,1.8s3.4-.7,3.4-2.1-.7-1.6-3.9-2.1c-4-.6-5.9-2.1-5.9-5s3.2-6.5,8-6.5,6,2.2,6,4v1.8h-.2c-1-1-3.2-1.8-5.4-1.8s-3.8.9-3.8,2.1.6,1.3,3.8,1.9c3.9.6,6,2.3,6,5.4s-2.8,6.4-7.9,6.4h0Z"/>
    <path class="st0" d="M111.1,8.9v11.3c1.8-2.4,3.6-4.8,5.8-6.9,1.1-1.1,2.2-1.2,3.7-1.2h2.7v.2c-1.3,1.1-5.7,6.1-7.7,8.6,1.5,1.9,3,3.8,4.7,5.5,1.7,1.7,2.5,2.1,3.6,2.5-.5,1.5-1.3,2.3-3.2,2.3s-2.3-.5-3.1-1.3c-2.4-2.5-4.5-5.3-6.6-8v9.2h-1.5c-2.2,0-3.2-1.1-3.2-3.3V5.8h1.5c2.3,0,3.2,1.3,3.2,3.1Z"/>
    <path class="st0" d="M133.1,11.7c5.7,0,8.9,4.6,8.9,9.6s-3.2,10.2-9.3,10.2-8.9-4.5-8.9-9.5,3.2-10.2,9.3-10.2h0ZM132.7,15.9c-2.7,0-4.1,2.2-4.1,5.4s1.4,6,4.5,6,4.1-2.2,4.1-5.3-1.4-6-4.5-6h0Z"/>
    <path class="st0" d="M159.5,31c-2.1,0-3.4-1.3-3.4-3.1v-7.5c0-3.2-1.4-4.6-3.8-4.6s-3.4,1.5-3.4,4.2v10.9h-1.4c-2,0-3.3-1.3-3.3-3.1v-8.1c0-4,2.6-8.1,8.5-8.1s8.1,3,8.1,8.3v11h-1.3,0Z"/>
  </g>
</svg>