<?xml version="1.0" encoding="UTF-8"?>
<svg id="Layer_1" xmlns="http://www.w3.org/2000/svg" version="1.1" viewBox="0 0 34.9 37.3">
  <!-- Generator: Adobe Illustrator 29.3.1, SVG Export Plug-In . SVG Version: 2.1.0 Build 151)  -->
  <defs>
    <style>
      .st0, .st1 {
        fill: #fff;
      }

      .st1 {
        fill-rule: evenodd;
      }
    </style>
  </defs>
  <path class="st1" d="M26.4,4.6c0,2-1.1,3.8-2.9,4.9l-4.2,2.4-2.4,4.2-1.2-2.1-13.4,7.7c-1.3.7-2.2,2-2.3,3.5-.2,1.9.7,3.6,2.3,4.5,1.7,1,3.4,2,5.1,2.9,0-2,1.1-3.8,2.9-4.9l3.9-2.2-1.2-2.1h4.9l13.7-7.9c1.3-.7,2.2-2,2.3-3.5.2-1.9-.7-3.6-2.3-4.5l-5.1-2.9s-.1,0,0,0Z"/>
  <path class="st1" d="M21.7,24.8l-2.4,1.4-.5.8-2,3.4-1.2-2.1-3.9,2.2c-.7.4-1.2,1.1-1.4,2-.2,1.2.4,2.2,1.4,2.8l2.3,1.3c1.7,1,3.8,1,5.5,0l2-1.2,9.9-5.7c1.3-.7,2.2-2,2.3-3.5.2-1.9-.7-3.6-2.3-4.5l-5.1-2.9c0,2-1.1,3.8-2.9,4.9l-1.9,1.1s.2,0,.2,0Z"/>
  <path class="st0" d="M26.2,4.5l-4.1-2.4h0c-.8-.5-1.6-.9-2.3-1.4-1.7-1-3.8-1-5.5,0-3.8,2.2-7.6,4.4-11.4,6.6C1.1,8.3,0,10.1,0,12.1v1.4H0v4.9S0,19.7,1.3,18.9c.8-.5,2.3-1.4,3.2-2l9.7-5.6-1.2-2.1h4.8l4.2-2.4h0l4.1-2.4h.1Z"/>
</svg>